<?xml version="1.0" encoding="UTF-8"?>
<!DOCTYPE svg PUBLIC "-//W3C//DTD SVG 1.1//EN" "http://www.w3.org/Graphics/SVG/1.1/DTD/svg11.dtd">
<svg xmlns="http://www.w3.org/2000/svg" version="1.1" width="500px" height="500px" style="shape-rendering:geometricPrecision; text-rendering:geometricPrecision; image-rendering:optimizeQuality; fill-rule:evenodd; clip-rule:evenodd" xmlns:xlink="http://www.w3.org/1999/xlink">
<g><path style="opacity:1" fill="#252525" d="M -0.5,-0.5 C 166.167,-0.5 332.833,-0.5 499.5,-0.5C 499.5,166.167 499.5,332.833 499.5,499.5C 332.833,499.5 166.167,499.5 -0.5,499.5C -0.5,332.833 -0.5,166.167 -0.5,-0.5 Z"/></g>
<g><path style="opacity:1" fill="#f8f8f8" d="M 262.5,15.5 C 276.375,13.8821 285.875,19.5488 291,32.5C 295.754,47.8973 296.754,63.564 294,79.5C 291.777,96.3958 288.444,113.062 284,129.5C 281.805,133.872 278.805,134.539 275,131.5C 274.833,130.5 274.667,129.5 274.5,128.5C 281.978,101.992 285.478,74.9923 285,47.5C 280.161,22.8058 267.994,18.6391 248.5,35C 234.087,49.7388 221.587,65.9055 211,83.5C 179.895,132.711 157.895,185.711 145,242.5C 141.686,257.676 140.352,273.01 141,288.5C 166.667,228.5 192.333,168.5 218,108.5C 224.116,101.354 229.116,102.02 233,110.5C 236.165,143.811 238.998,177.144 241.5,210.5C 253.477,209.184 265.477,208.017 277.5,207C 280.351,205.47 283.185,203.97 286,202.5C 288.261,203.852 290.761,204.519 293.5,204.5C 306.386,203.089 319.053,200.589 331.5,197C 339.531,195.259 341.531,197.926 337.5,205C 321.723,210.379 305.556,213.879 289,215.5C 280.066,254.325 272.899,293.325 267.5,332.5C 334.596,299.952 401.929,267.952 469.5,236.5C 471.739,236.574 472.739,237.741 472.5,240C 472.167,240.833 471.833,241.667 471.5,242.5C 402.955,275.606 334.288,308.439 265.5,341C 262.477,356.366 260.143,371.866 258.5,387.5C 261.044,387.104 263.211,387.771 265,389.5C 264.638,396.74 262.138,403.24 257.5,409C 254.044,410.123 251.21,409.29 249,406.5C 248.333,398.833 248.333,391.167 249,383.5C 250.361,371.475 251.861,359.475 253.5,347.5C 179.138,381.847 105.138,417.014 31.5,453C 28.4333,454.164 26.7666,453.164 26.5,450C 26.4393,448.289 27.1059,446.956 28.5,446C 103.955,410.44 179.288,374.606 254.5,338.5C 260.665,307.172 266.498,275.838 272,244.5C 264.836,257.499 257.169,270.166 249,282.5C 248.699,288.498 248.865,294.498 249.5,300.5C 250.899,311.194 246.732,314.528 237,310.5C 235.725,308.283 234.725,305.949 234,303.5C 222.792,319.042 209.292,332.209 193.5,343C 164.776,359.874 144.943,352.707 134,321.5C 129.469,297.196 129.469,272.862 134,248.5C 149.161,176.529 178.161,110.862 221,51.5C 227.46,43.3708 234.294,35.5374 241.5,28C 247.927,22.7115 254.927,18.5448 262.5,15.5 Z"/></g>
<g><path style="opacity:1" fill="#272727" d="M 226.5,208.5 C 214.784,209.144 203.451,208.478 192.5,206.5C 201.563,184.817 210.73,163.15 220,141.5C 222.617,163.788 224.784,186.121 226.5,208.5 Z"/></g>
<g><path style="opacity:1" fill="#5b5b5b" d="M 192.5,206.5 C 203.451,208.478 214.784,209.144 226.5,208.5C 215.012,209.495 203.345,209.828 191.5,209.5C 191.263,208.209 191.596,207.209 192.5,206.5 Z"/></g>
<g><path style="opacity:1" fill="#272727" d="M 267.5,217.5 C 269.924,217.192 272.257,217.526 274.5,218.5C 266.095,235.648 256.928,252.315 247,268.5C 245.682,252.475 244.182,236.475 242.5,220.5C 251.002,219.728 259.335,218.728 267.5,217.5 Z"/></g>
<g><path style="opacity:1" fill="#252525" d="M 184.5,224.5 C 186.307,225.615 188.307,226.281 190.5,226.5C 203.104,224.774 215.77,224.107 228.5,224.5C 230.333,245.83 231.833,267.163 233,288.5C 221.251,306.25 206.751,321.416 189.5,334C 163.357,349.594 147.69,342.427 142.5,312.5C 147.106,311.363 149.94,308.363 151,303.5C 162.182,277.141 173.348,250.808 184.5,224.5 Z"/></g>
</svg>
